<mxfile host="65bd71144e">
    <diagram id="7gcUSTIZ7YSJ5vT40chW" name="Autenticação">
        <mxGraphModel dx="2323" dy="1631" grid="0" gridSize="10" guides="1" tooltips="1" connect="1" arrows="1" fold="1" page="0" pageScale="1" pageWidth="1169" pageHeight="827" math="0" shadow="0">
            <root>
                <mxCell id="0"/>
                <mxCell id="1" parent="0"/>
                <mxCell id="Z6yaOMebvy-DG6b0BKm_-25" value="" style="rounded=1;whiteSpace=wrap;html=1;movable=0;resizable=0;rotatable=0;deletable=0;editable=0;locked=1;connectable=0;" parent="1" vertex="1">
                    <mxGeometry x="144" y="-112" width="939" height="570" as="geometry"/>
                </mxCell>
                <mxCell id="Z6yaOMebvy-DG6b0BKm_-9" value="" style="shape=mxgraph.mockup.containers.marginRect;rectMarginTop=10;strokeColor=#666666;strokeWidth=1;dashed=0;rounded=1;arcSize=5;recursiveResize=0;" parent="1" vertex="1">
                    <mxGeometry x="314" y="79" width="212" height="245" as="geometry"/>
                </mxCell>
                <mxCell id="Z6yaOMebvy-DG6b0BKm_-10" value="Clients" style="shape=rect;strokeColor=none;fillColor=#008cff;strokeWidth=1;dashed=0;rounded=1;arcSize=20;fontColor=#ffffff;fontSize=17;spacing=2;spacingTop=-2;align=left;autosize=1;spacingLeft=4;resizeWidth=0;resizeHeight=0;perimeter=none;" parent="Z6yaOMebvy-DG6b0BKm_-9" vertex="1">
                    <mxGeometry x="5" y="1" width="72" height="28" as="geometry"/>
                </mxCell>
                <mxCell id="Z6yaOMebvy-DG6b0BKm_-4" value="" style="aspect=fixed;perimeter=ellipsePerimeter;html=1;align=center;shadow=0;dashed=0;spacingTop=3;image;image=img/lib/active_directory/laptop_client.svg;" parent="1" vertex="1">
                    <mxGeometry x="368" y="130" width="59.4" height="66" as="geometry"/>
                </mxCell>
                <mxCell id="Z6yaOMebvy-DG6b0BKm_-6" value="" style="sketch=0;outlineConnect=0;fontColor=#232F3E;gradientColor=none;fillColor=#232F3D;strokeColor=none;dashed=0;verticalLabelPosition=bottom;verticalAlign=top;align=center;html=1;fontSize=12;fontStyle=0;aspect=fixed;pointerEvents=1;shape=mxgraph.aws4.mobile_client;" parent="1" vertex="1">
                    <mxGeometry x="451" y="181" width="41" height="78" as="geometry"/>
                </mxCell>
                <mxCell id="Z6yaOMebvy-DG6b0BKm_-7" value="" style="shape=image;verticalLabelPosition=bottom;labelBackgroundColor=#ffffff;verticalAlign=top;aspect=fixed;imageAspect=0;image=data:image/svg+xml,PHN2ZyB4bWxuczpjYz0iaHR0cDovL2NyZWF0aXZlY29tbW9ucy5vcmcvbnMjIiB4bWxuczpkYz0iaHR0cDovL3B1cmwub3JnL2RjL2VsZW1lbnRzLzEuMS8iIHhtbG5zOmlua3NjYXBlPSJodHRwOi8vd3d3Lmlua3NjYXBlLm9yZy9uYW1lc3BhY2VzL2lua3NjYXBlIiB4bWxuczpyZGY9Imh0dHA6Ly93d3cudzMub3JnLzE5OTkvMDIvMjItcmRmLXN5bnRheC1ucyMiIHhtbG5zOnNvZGlwb2RpPSJodHRwOi8vc29kaXBvZGkuc291cmNlZm9yZ2UubmV0L0RURC9zb2RpcG9kaS0wLmR0ZCIgeG1sbnM6c3ZnPSJodHRwOi8vd3d3LnczLm9yZy8yMDAwL3N2ZyIgeG1sbnM9Imh0dHA6Ly93d3cudzMub3JnLzIwMDAvc3ZnIiB4bWxuczp4bGluaz0iaHR0cDovL3d3dy53My5vcmcvMTk5OS94bGluayIgdmVyc2lvbj0iMS4xIiBpZD0ic3ZnMTE4NTI2IiBpbmtzY2FwZTp2ZXJzaW9uPSIwLjkyLjMgKDI0MDU1NDYsIDIwMTgtMDMtMTEpIiBzb2RpcG9kaTpkb2NuYW1lPSJhenVyZV9jbGlfMS5zdmciIHg9IjBweCIgeT0iMHB4IiB2aWV3Qm94PSIwIDAgNTYuOTEgNDYuMDUiIHN0eWxlPSJlbmFibGUtYmFja2dyb3VuZDpuZXcgMCAwIDU2LjkxIDQ2LjA1OyIgeG1sOnNwYWNlPSJwcmVzZXJ2ZSI+JiN4YTs8c29kaXBvZGk6bmFtZWR2aWV3IGJvcmRlcmNvbG9yPSIjNjY2NjY2IiBib3JkZXJvcGFjaXR5PSIxIiBmaXQtbWFyZ2luLWJvdHRvbT0iMCIgZml0LW1hcmdpbi1sZWZ0PSIwIiBmaXQtbWFyZ2luLXJpZ2h0PSIwIiBmaXQtbWFyZ2luLXRvcD0iMCIgZ3JpZHRvbGVyYW5jZT0iMTAiIGd1aWRldG9sZXJhbmNlPSIxMCIgaWQ9Im5hbWVkdmlldzExODUyOCIgaW5rc2NhcGU6Y3VycmVudC1sYXllcj0ic3ZnMTE4NTI2IiBpbmtzY2FwZTpjeD0iMzcuOTM5MjQzIiBpbmtzY2FwZTpjeT0iMzAuNzAwODA0IiBpbmtzY2FwZTpwYWdlb3BhY2l0eT0iMCIgaW5rc2NhcGU6cGFnZXNoYWRvdz0iMiIgaW5rc2NhcGU6d2luZG93LWhlaWdodD0iMTAxNyIgaW5rc2NhcGU6d2luZG93LW1heGltaXplZD0iMSIgaW5rc2NhcGU6d2luZG93LXdpZHRoPSIxOTIwIiBpbmtzY2FwZTp3aW5kb3cteD0iLTgiIGlua3NjYXBlOndpbmRvdy15PSItOCIgaW5rc2NhcGU6em9vbT0iMTAuNTk4Nzc3IiBvYmplY3R0b2xlcmFuY2U9IjEwIiBwYWdlY29sb3I9IiNmZmZmZmYiIHNob3dncmlkPSJmYWxzZSI+JiN4YTsJPC9zb2RpcG9kaTpuYW1lZHZpZXc+JiN4YTs8ZyBpZD0iZzExODUyNCIgdHJhbnNmb3JtPSJ0cmFuc2xhdGUoLTcuNjUsLTcuNjUwMTM2NSkiPiYjeGE7CTx0aXRsZSBpZD0idGl0bGUxMTg0OTEiPlBhZ2UtMTwvdGl0bGU+JiN4YTsJPGcgaWQ9Imdyb3VwMTMzNS0xIiB0cmFuc2Zvcm09InRyYW5zbGF0ZSg3LjY1LC03LjY1KSI+JiN4YTsJCTx0aXRsZSBpZD0idGl0bGUxMTg0OTMiPkF6dXJlIENMSSAjMTwvdGl0bGU+JiN4YTsJCTxnIGlkPSJzaGFwZTEzMzYtMiI+JiN4YTsJCQk8dGl0bGUgaWQ9InRpdGxlMTE4NDk1Ij5TaGVldC4xMzM2PC90aXRsZT4mI3hhOwkJCTxyZWN0IGlkPSJyZWN0MTE4NDk3IiB5PSIxNS4zIiBzdHlsZT0iZmlsbDojN0E3QTdBOyIgd2lkdGg9IjU2LjkxIiBoZWlnaHQ9IjQ2LjA1Ii8+JiN4YTsJCTwvZz4mI3hhOwkJPGcgaWQ9InNoYXBlMTMzNy00IiB0cmFuc2Zvcm09InRyYW5zbGF0ZSgyLjk5NTIyLC0yLjYyMDgxKSI+JiN4YTsJCQk8dGl0bGUgaWQ9InRpdGxlMTE4NTAwIj5TaGVldC4xMzM3PC90aXRsZT4mI3hhOwkJCTxyZWN0IGlkPSJyZWN0MTE4NTAyIiB4PSIwIiB5PSIyNi45MSIgc3R5bGU9ImZpbGw6IzIzMUYyMDsiIHdpZHRoPSI1MC45MiIgaGVpZ2h0PSIzNC40NCIvPiYjeGE7CQk8L2c+JiN4YTsJCTxnIGlkPSJncm91cDEzMzgtNiIgdHJhbnNmb3JtPSJ0cmFuc2xhdGUoOC4xMjk3NiwtOC40NDgwMSkiPiYjeGE7CQkJPHRpdGxlIGlkPSJ0aXRsZTExODUwNSI+U2hlZXQuMTMzODwvdGl0bGU+JiN4YTsJCQk8ZyBpZD0ic2hhcGUxMzM5LTciPiYjeGE7CQkJCTx0aXRsZSBpZD0idGl0bGUxMTg1MDciPlNoZWV0LjEzMzk8L3RpdGxlPiYjeGE7CQkJCTxwYXRoIGlkPSJwYXRoMTE4NTA5IiBpbmtzY2FwZTpjb25uZWN0b3ItY3VydmF0dXJlPSIwIiBzdHlsZT0iZmlsbDojRkZGRkZGOyIgZD0iTTAsNTFsMS4xMS0xLjE0bDYuODgsNS43NWwtNi44OCw1Ljc0TDAsNjAuMjMgICAgICBsNS41OC00LjZMMCw1MXoiLz4mI3hhOwkJCTwvZz4mI3hhOwkJCTxnIGlkPSJzaGFwZTEzNDAtOSIgdHJhbnNmb3JtPSJ0cmFuc2xhdGUoMTEuNTI3OCkiPiYjeGE7CQkJCTx0aXRsZSBpZD0idGl0bGUxMTg1MTIiPlNoZWV0LjEzNDA8L3RpdGxlPiYjeGE7CQkJCTxwYXRoIGlkPSJwYXRoMTE4NTE0IiBpbmtzY2FwZTpjb25uZWN0b3ItY3VydmF0dXJlPSIwIiBzdHlsZT0iZmlsbDojRkZGRkZGOyIgZD0iTTAsNTFsMS4xMS0xLjE0bDYuODgsNS43NWwtNi44OCw1Ljc0TDAsNjAuMjMgICAgICBsNS41OC00LjZMMCw1MXoiLz4mI3hhOwkJCTwvZz4mI3hhOwkJCTxnIGlkPSJzaGFwZTEzNDEtMTEiIHRyYW5zZm9ybT0idHJhbnNsYXRlKDIzLjA1NDkpIj4mI3hhOwkJCQk8dGl0bGUgaWQ9InRpdGxlMTE4NTE3Ij5TaGVldC4xMzQxPC90aXRsZT4mI3hhOwkJCQk8cGF0aCBpZD0icGF0aDExODUxOSIgaW5rc2NhcGU6Y29ubmVjdG9yLWN1cnZhdHVyZT0iMCIgc3R5bGU9ImZpbGw6I0ZGRkZGRjsiIGQ9Ik0wLDUxbDEuMTEtMS4xNGw2Ljg4LDUuNzVsLTYuODgsNS43NEwwLDYwLjIzICAgICAgbDUuNTgtNC42TDAsNTF6Ii8+JiN4YTsJCQk8L2c+JiN4YTsJCTwvZz4mI3hhOwk8L2c+JiN4YTs8L2c+JiN4YTs8L3N2Zz4=;" parent="1" vertex="1">
                    <mxGeometry x="353" y="219" width="57" height="46" as="geometry"/>
                </mxCell>
                <mxCell id="Z6yaOMebvy-DG6b0BKm_-11" value="" style="shape=mxgraph.mockup.containers.marginRect;rectMarginTop=10;strokeColor=#666666;strokeWidth=1;dashed=0;rounded=1;arcSize=5;recursiveResize=0;" parent="1" vertex="1">
                    <mxGeometry x="731" y="-35" width="210" height="203" as="geometry"/>
                </mxCell>
                <mxCell id="Z6yaOMebvy-DG6b0BKm_-12" value="Authorization Servers" style="shape=rect;strokeColor=none;fillColor=#008cff;strokeWidth=1;dashed=0;rounded=1;arcSize=20;fontColor=#ffffff;fontSize=17;spacing=2;spacingTop=-2;align=left;autosize=1;spacingLeft=4;resizeWidth=0;resizeHeight=0;perimeter=none;" parent="Z6yaOMebvy-DG6b0BKm_-11" vertex="1">
                    <mxGeometry x="5" y="1" width="183" height="28" as="geometry"/>
                </mxCell>
                <mxCell id="Z6yaOMebvy-DG6b0BKm_-2" value="" style="aspect=fixed;perimeter=ellipsePerimeter;html=1;align=center;shadow=0;dashed=0;spacingTop=3;image;image=img/lib/active_directory/web_server.svg;" parent="Z6yaOMebvy-DG6b0BKm_-11" vertex="1">
                    <mxGeometry x="82" y="73" width="58.4" height="73" as="geometry"/>
                </mxCell>
                <mxCell id="Z6yaOMebvy-DG6b0BKm_-16" value="&lt;b&gt;Auth&lt;/b&gt;" style="text;html=1;strokeColor=none;fillColor=none;align=center;verticalAlign=middle;whiteSpace=wrap;rounded=0;" parent="Z6yaOMebvy-DG6b0BKm_-11" vertex="1">
                    <mxGeometry x="77" y="143" width="60" height="30" as="geometry"/>
                </mxCell>
                <mxCell id="Z6yaOMebvy-DG6b0BKm_-21" value="" style="endArrow=classic;html=1;rounded=0;exitX=1.014;exitY=0.43;exitDx=0;exitDy=0;exitPerimeter=0;entryX=0.002;entryY=0.485;entryDx=0;entryDy=0;entryPerimeter=0;" parent="1" source="Z6yaOMebvy-DG6b0BKm_-9" target="Z6yaOMebvy-DG6b0BKm_-11" edge="1">
                    <mxGeometry relative="1" as="geometry">
                        <mxPoint x="576" y="170" as="sourcePoint"/>
                        <mxPoint x="676" y="170" as="targetPoint"/>
                    </mxGeometry>
                </mxCell>
                <mxCell id="Z6yaOMebvy-DG6b0BKm_-22" value="Autenticação" style="edgeLabel;resizable=0;html=1;align=center;verticalAlign=middle;" parent="Z6yaOMebvy-DG6b0BKm_-21" connectable="0" vertex="1">
                    <mxGeometry relative="1" as="geometry"/>
                </mxCell>
                <mxCell id="Z6yaOMebvy-DG6b0BKm_-26" value="&lt;h1&gt;1 - Autenticação&lt;/h1&gt;&lt;p&gt;&lt;font style=&quot;font-size: 14px;&quot;&gt;Os clientes começam se autenticando no sistema com suas credenciais, de acordo com sua configuração de fatores.&lt;/font&gt;&lt;/p&gt;" style="text;html=1;strokeColor=none;fillColor=none;spacing=5;spacingTop=-20;whiteSpace=wrap;overflow=hidden;rounded=0;" parent="1" vertex="1">
                    <mxGeometry x="192" y="-94" width="417" height="120" as="geometry"/>
                </mxCell>
                <mxCell id="Z6yaOMebvy-DG6b0BKm_-27" value="&lt;font style=&quot;font-size: 14px;&quot;&gt;&lt;b&gt;&lt;font color=&quot;#ff0000&quot;&gt;Fatores de Autenticação:&lt;/font&gt;&lt;br&gt;1 Fator (algo que só o cliente sabe):&lt;/b&gt; Geralmente &lt;b&gt;usuário &lt;/b&gt;e &lt;b&gt;senha&lt;/b&gt;, mas pode ser perguntas pessoais, etc&lt;br&gt;&lt;b&gt;2º Fator (algum objeto que só o cliente possui):&lt;/b&gt; Geralmente é um smartphone (com app de 2FA), mas pode ser um token físico RSA, etc&lt;br&gt;&lt;b&gt;3º Fator (algo que só o cliente é ou tem):&lt;/b&gt; Geralmente uma digital de um dos dedos, mas pode ser uma íris, reconhecimento facial, etc&lt;/font&gt;" style="text;html=1;strokeColor=none;fillColor=none;align=left;verticalAlign=middle;whiteSpace=wrap;rounded=0;" parent="1" vertex="1">
                    <mxGeometry x="190" y="382" width="921" height="30" as="geometry"/>
                </mxCell>
                <mxCell id="Z6yaOMebvy-DG6b0BKm_-45" value="" style="rounded=1;whiteSpace=wrap;html=1;movable=0;resizable=0;rotatable=0;deletable=0;editable=0;locked=1;connectable=0;" parent="1" vertex="1">
                    <mxGeometry x="1150" y="-112" width="932" height="574" as="geometry"/>
                </mxCell>
                <mxCell id="Z6yaOMebvy-DG6b0BKm_-46" value="" style="shape=mxgraph.mockup.containers.marginRect;rectMarginTop=10;strokeColor=#666666;strokeWidth=1;dashed=0;rounded=1;arcSize=5;recursiveResize=0;" parent="1" vertex="1">
                    <mxGeometry x="1327" y="167" width="212" height="245" as="geometry"/>
                </mxCell>
                <mxCell id="Z6yaOMebvy-DG6b0BKm_-47" value="Clients" style="shape=rect;strokeColor=none;fillColor=#008cff;strokeWidth=1;dashed=0;rounded=1;arcSize=20;fontColor=#ffffff;fontSize=17;spacing=2;spacingTop=-2;align=left;autosize=1;spacingLeft=4;resizeWidth=0;resizeHeight=0;perimeter=none;" parent="Z6yaOMebvy-DG6b0BKm_-46" vertex="1">
                    <mxGeometry x="5" y="1" width="72" height="28" as="geometry"/>
                </mxCell>
                <mxCell id="Z6yaOMebvy-DG6b0BKm_-48" value="" style="aspect=fixed;perimeter=ellipsePerimeter;html=1;align=center;shadow=0;dashed=0;spacingTop=3;image;image=img/lib/active_directory/laptop_client.svg;" parent="1" vertex="1">
                    <mxGeometry x="1381" y="218" width="59.4" height="66" as="geometry"/>
                </mxCell>
                <mxCell id="Z6yaOMebvy-DG6b0BKm_-49" value="" style="sketch=0;outlineConnect=0;fontColor=#232F3E;gradientColor=none;fillColor=#232F3D;strokeColor=none;dashed=0;verticalLabelPosition=bottom;verticalAlign=top;align=center;html=1;fontSize=12;fontStyle=0;aspect=fixed;pointerEvents=1;shape=mxgraph.aws4.mobile_client;" parent="1" vertex="1">
                    <mxGeometry x="1464" y="269" width="41" height="78" as="geometry"/>
                </mxCell>
                <mxCell id="Z6yaOMebvy-DG6b0BKm_-50" value="" style="shape=image;verticalLabelPosition=bottom;labelBackgroundColor=#ffffff;verticalAlign=top;aspect=fixed;imageAspect=0;image=data:image/svg+xml,PHN2ZyB4bWxuczpjYz0iaHR0cDovL2NyZWF0aXZlY29tbW9ucy5vcmcvbnMjIiB4bWxuczpkYz0iaHR0cDovL3B1cmwub3JnL2RjL2VsZW1lbnRzLzEuMS8iIHhtbG5zOmlua3NjYXBlPSJodHRwOi8vd3d3Lmlua3NjYXBlLm9yZy9uYW1lc3BhY2VzL2lua3NjYXBlIiB4bWxuczpyZGY9Imh0dHA6Ly93d3cudzMub3JnLzE5OTkvMDIvMjItcmRmLXN5bnRheC1ucyMiIHhtbG5zOnNvZGlwb2RpPSJodHRwOi8vc29kaXBvZGkuc291cmNlZm9yZ2UubmV0L0RURC9zb2RpcG9kaS0wLmR0ZCIgeG1sbnM6c3ZnPSJodHRwOi8vd3d3LnczLm9yZy8yMDAwL3N2ZyIgeG1sbnM9Imh0dHA6Ly93d3cudzMub3JnLzIwMDAvc3ZnIiB4bWxuczp4bGluaz0iaHR0cDovL3d3dy53My5vcmcvMTk5OS94bGluayIgdmVyc2lvbj0iMS4xIiBpZD0ic3ZnMTE4NTI2IiBpbmtzY2FwZTp2ZXJzaW9uPSIwLjkyLjMgKDI0MDU1NDYsIDIwMTgtMDMtMTEpIiBzb2RpcG9kaTpkb2NuYW1lPSJhenVyZV9jbGlfMS5zdmciIHg9IjBweCIgeT0iMHB4IiB2aWV3Qm94PSIwIDAgNTYuOTEgNDYuMDUiIHN0eWxlPSJlbmFibGUtYmFja2dyb3VuZDpuZXcgMCAwIDU2LjkxIDQ2LjA1OyIgeG1sOnNwYWNlPSJwcmVzZXJ2ZSI+JiN4YTs8c29kaXBvZGk6bmFtZWR2aWV3IGJvcmRlcmNvbG9yPSIjNjY2NjY2IiBib3JkZXJvcGFjaXR5PSIxIiBmaXQtbWFyZ2luLWJvdHRvbT0iMCIgZml0LW1hcmdpbi1sZWZ0PSIwIiBmaXQtbWFyZ2luLXJpZ2h0PSIwIiBmaXQtbWFyZ2luLXRvcD0iMCIgZ3JpZHRvbGVyYW5jZT0iMTAiIGd1aWRldG9sZXJhbmNlPSIxMCIgaWQ9Im5hbWVkdmlldzExODUyOCIgaW5rc2NhcGU6Y3VycmVudC1sYXllcj0ic3ZnMTE4NTI2IiBpbmtzY2FwZTpjeD0iMzcuOTM5MjQzIiBpbmtzY2FwZTpjeT0iMzAuNzAwODA0IiBpbmtzY2FwZTpwYWdlb3BhY2l0eT0iMCIgaW5rc2NhcGU6cGFnZXNoYWRvdz0iMiIgaW5rc2NhcGU6d2luZG93LWhlaWdodD0iMTAxNyIgaW5rc2NhcGU6d2luZG93LW1heGltaXplZD0iMSIgaW5rc2NhcGU6d2luZG93LXdpZHRoPSIxOTIwIiBpbmtzY2FwZTp3aW5kb3cteD0iLTgiIGlua3NjYXBlOndpbmRvdy15PSItOCIgaW5rc2NhcGU6em9vbT0iMTAuNTk4Nzc3IiBvYmplY3R0b2xlcmFuY2U9IjEwIiBwYWdlY29sb3I9IiNmZmZmZmYiIHNob3dncmlkPSJmYWxzZSI+JiN4YTsJPC9zb2RpcG9kaTpuYW1lZHZpZXc+JiN4YTs8ZyBpZD0iZzExODUyNCIgdHJhbnNmb3JtPSJ0cmFuc2xhdGUoLTcuNjUsLTcuNjUwMTM2NSkiPiYjeGE7CTx0aXRsZSBpZD0idGl0bGUxMTg0OTEiPlBhZ2UtMTwvdGl0bGU+JiN4YTsJPGcgaWQ9Imdyb3VwMTMzNS0xIiB0cmFuc2Zvcm09InRyYW5zbGF0ZSg3LjY1LC03LjY1KSI+JiN4YTsJCTx0aXRsZSBpZD0idGl0bGUxMTg0OTMiPkF6dXJlIENMSSAjMTwvdGl0bGU+JiN4YTsJCTxnIGlkPSJzaGFwZTEzMzYtMiI+JiN4YTsJCQk8dGl0bGUgaWQ9InRpdGxlMTE4NDk1Ij5TaGVldC4xMzM2PC90aXRsZT4mI3hhOwkJCTxyZWN0IGlkPSJyZWN0MTE4NDk3IiB5PSIxNS4zIiBzdHlsZT0iZmlsbDojN0E3QTdBOyIgd2lkdGg9IjU2LjkxIiBoZWlnaHQ9IjQ2LjA1Ii8+JiN4YTsJCTwvZz4mI3hhOwkJPGcgaWQ9InNoYXBlMTMzNy00IiB0cmFuc2Zvcm09InRyYW5zbGF0ZSgyLjk5NTIyLC0yLjYyMDgxKSI+JiN4YTsJCQk8dGl0bGUgaWQ9InRpdGxlMTE4NTAwIj5TaGVldC4xMzM3PC90aXRsZT4mI3hhOwkJCTxyZWN0IGlkPSJyZWN0MTE4NTAyIiB4PSIwIiB5PSIyNi45MSIgc3R5bGU9ImZpbGw6IzIzMUYyMDsiIHdpZHRoPSI1MC45MiIgaGVpZ2h0PSIzNC40NCIvPiYjeGE7CQk8L2c+JiN4YTsJCTxnIGlkPSJncm91cDEzMzgtNiIgdHJhbnNmb3JtPSJ0cmFuc2xhdGUoOC4xMjk3NiwtOC40NDgwMSkiPiYjeGE7CQkJPHRpdGxlIGlkPSJ0aXRsZTExODUwNSI+U2hlZXQuMTMzODwvdGl0bGU+JiN4YTsJCQk8ZyBpZD0ic2hhcGUxMzM5LTciPiYjeGE7CQkJCTx0aXRsZSBpZD0idGl0bGUxMTg1MDciPlNoZWV0LjEzMzk8L3RpdGxlPiYjeGE7CQkJCTxwYXRoIGlkPSJwYXRoMTE4NTA5IiBpbmtzY2FwZTpjb25uZWN0b3ItY3VydmF0dXJlPSIwIiBzdHlsZT0iZmlsbDojRkZGRkZGOyIgZD0iTTAsNTFsMS4xMS0xLjE0bDYuODgsNS43NWwtNi44OCw1Ljc0TDAsNjAuMjMgICAgICBsNS41OC00LjZMMCw1MXoiLz4mI3hhOwkJCTwvZz4mI3hhOwkJCTxnIGlkPSJzaGFwZTEzNDAtOSIgdHJhbnNmb3JtPSJ0cmFuc2xhdGUoMTEuNTI3OCkiPiYjeGE7CQkJCTx0aXRsZSBpZD0idGl0bGUxMTg1MTIiPlNoZWV0LjEzNDA8L3RpdGxlPiYjeGE7CQkJCTxwYXRoIGlkPSJwYXRoMTE4NTE0IiBpbmtzY2FwZTpjb25uZWN0b3ItY3VydmF0dXJlPSIwIiBzdHlsZT0iZmlsbDojRkZGRkZGOyIgZD0iTTAsNTFsMS4xMS0xLjE0bDYuODgsNS43NWwtNi44OCw1Ljc0TDAsNjAuMjMgICAgICBsNS41OC00LjZMMCw1MXoiLz4mI3hhOwkJCTwvZz4mI3hhOwkJCTxnIGlkPSJzaGFwZTEzNDEtMTEiIHRyYW5zZm9ybT0idHJhbnNsYXRlKDIzLjA1NDkpIj4mI3hhOwkJCQk8dGl0bGUgaWQ9InRpdGxlMTE4NTE3Ij5TaGVldC4xMzQxPC90aXRsZT4mI3hhOwkJCQk8cGF0aCBpZD0icGF0aDExODUxOSIgaW5rc2NhcGU6Y29ubmVjdG9yLWN1cnZhdHVyZT0iMCIgc3R5bGU9ImZpbGw6I0ZGRkZGRjsiIGQ9Ik0wLDUxbDEuMTEtMS4xNGw2Ljg4LDUuNzVsLTYuODgsNS43NEwwLDYwLjIzICAgICAgbDUuNTgtNC42TDAsNTF6Ii8+JiN4YTsJCQk8L2c+JiN4YTsJCTwvZz4mI3hhOwk8L2c+JiN4YTs8L2c+JiN4YTs8L3N2Zz4=;" parent="1" vertex="1">
                    <mxGeometry x="1366" y="307" width="57" height="46" as="geometry"/>
                </mxCell>
                <mxCell id="Z6yaOMebvy-DG6b0BKm_-51" value="" style="shape=mxgraph.mockup.containers.marginRect;rectMarginTop=10;strokeColor=#666666;strokeWidth=1;dashed=0;rounded=1;arcSize=5;recursiveResize=0;" parent="1" vertex="1">
                    <mxGeometry x="1744" y="53" width="210" height="203" as="geometry"/>
                </mxCell>
                <mxCell id="Z6yaOMebvy-DG6b0BKm_-52" value="Authorization Servers" style="shape=rect;strokeColor=none;fillColor=#008cff;strokeWidth=1;dashed=0;rounded=1;arcSize=20;fontColor=#ffffff;fontSize=17;spacing=2;spacingTop=-2;align=left;autosize=1;spacingLeft=4;resizeWidth=0;resizeHeight=0;perimeter=none;" parent="Z6yaOMebvy-DG6b0BKm_-51" vertex="1">
                    <mxGeometry x="5" y="1" width="183" height="28" as="geometry"/>
                </mxCell>
                <mxCell id="Z6yaOMebvy-DG6b0BKm_-53" value="" style="aspect=fixed;perimeter=ellipsePerimeter;html=1;align=center;shadow=0;dashed=0;spacingTop=3;image;image=img/lib/active_directory/web_server.svg;" parent="Z6yaOMebvy-DG6b0BKm_-51" vertex="1">
                    <mxGeometry x="82" y="73" width="58.4" height="73" as="geometry"/>
                </mxCell>
                <mxCell id="Z6yaOMebvy-DG6b0BKm_-54" value="&lt;b&gt;Auth&lt;/b&gt;" style="text;html=1;strokeColor=none;fillColor=none;align=center;verticalAlign=middle;whiteSpace=wrap;rounded=0;" parent="Z6yaOMebvy-DG6b0BKm_-51" vertex="1">
                    <mxGeometry x="77" y="143" width="60" height="30" as="geometry"/>
                </mxCell>
                <mxCell id="Z6yaOMebvy-DG6b0BKm_-57" value="" style="endArrow=classic;html=1;rounded=0;exitX=0.002;exitY=0.678;exitDx=0;exitDy=0;exitPerimeter=0;entryX=1.005;entryY=0.592;entryDx=0;entryDy=0;entryPerimeter=0;" parent="1" source="Z6yaOMebvy-DG6b0BKm_-51" target="Z6yaOMebvy-DG6b0BKm_-46" edge="1">
                    <mxGeometry relative="1" as="geometry">
                        <mxPoint x="1561" y="360" as="sourcePoint"/>
                        <mxPoint x="1763" y="239" as="targetPoint"/>
                    </mxGeometry>
                </mxCell>
                <mxCell id="Z6yaOMebvy-DG6b0BKm_-58" value="Access Token" style="edgeLabel;resizable=0;html=1;align=center;verticalAlign=middle;" parent="Z6yaOMebvy-DG6b0BKm_-57" connectable="0" vertex="1">
                    <mxGeometry relative="1" as="geometry"/>
                </mxCell>
                <mxCell id="Z6yaOMebvy-DG6b0BKm_-59" value="&lt;h1&gt;2 - Obtendo o Token&lt;/h1&gt;&lt;p&gt;&lt;font style=&quot;font-size: 14px;&quot;&gt;Os clientes recebem um token de acesso ao sistema, ou &quot;access token&quot;, que é um &lt;b&gt;JWT(Json Web Token)&amp;nbsp;&lt;/b&gt;assinado digitalmente, ou seja, um &lt;b&gt;JWS (Jason Web Signature)&lt;/b&gt;.&lt;br&gt;&lt;br&gt;O token pode ser apenas um &quot;access token&quot;, que permite o usuário utilizar as funcionalidades do sistema, ou pode ser um &quot;access token + refresh token&quot; que permite além do acesso, usá-lo para se manter logado na aplicação após X período de tempo.&lt;/font&gt;&lt;/p&gt;" style="text;html=1;strokeColor=none;fillColor=none;spacing=5;spacingTop=-20;whiteSpace=wrap;overflow=hidden;rounded=0;" parent="1" vertex="1">
                    <mxGeometry x="1202" y="-78" width="492" height="204" as="geometry"/>
                </mxCell>
                <mxCell id="Z6yaOMebvy-DG6b0BKm_-61" value="" style="rounded=1;whiteSpace=wrap;html=1;movable=0;resizable=0;rotatable=0;deletable=0;editable=0;locked=1;connectable=0;" parent="1" vertex="1">
                    <mxGeometry x="144" y="499" width="939" height="570" as="geometry"/>
                </mxCell>
                <mxCell id="Z6yaOMebvy-DG6b0BKm_-62" value="&lt;h1&gt;3 - Passando o Token&lt;/h1&gt;&lt;p&gt;&lt;font style=&quot;font-size: 14px;&quot;&gt;Os clientes devem SEMPRE passar o token no header Authorization da requisição. Dessa forma as aplicações conseguem validar o token com base as chaves públicas do&amp;nbsp;&lt;b&gt;Authorization Server&lt;/b&gt;.&lt;br&gt;&lt;br&gt;&lt;b&gt;Authorization | Bearer &amp;lt;token&amp;gt;&lt;/b&gt;&lt;/font&gt;&lt;/p&gt;" style="text;html=1;strokeColor=none;fillColor=none;spacing=5;spacingTop=-20;whiteSpace=wrap;overflow=hidden;rounded=0;" parent="1" vertex="1">
                    <mxGeometry x="192" y="556" width="421" height="158" as="geometry"/>
                </mxCell>
                <mxCell id="Z6yaOMebvy-DG6b0BKm_-63" value="" style="shape=mxgraph.mockup.containers.marginRect;rectMarginTop=10;strokeColor=#666666;strokeWidth=1;dashed=0;rounded=1;arcSize=5;recursiveResize=0;" parent="1" vertex="1">
                    <mxGeometry x="333" y="775" width="212" height="245" as="geometry"/>
                </mxCell>
                <mxCell id="Z6yaOMebvy-DG6b0BKm_-64" value="Clients" style="shape=rect;strokeColor=none;fillColor=#008cff;strokeWidth=1;dashed=0;rounded=1;arcSize=20;fontColor=#ffffff;fontSize=17;spacing=2;spacingTop=-2;align=left;autosize=1;spacingLeft=4;resizeWidth=0;resizeHeight=0;perimeter=none;" parent="Z6yaOMebvy-DG6b0BKm_-63" vertex="1">
                    <mxGeometry x="5" y="1" width="72" height="28" as="geometry"/>
                </mxCell>
                <mxCell id="Z6yaOMebvy-DG6b0BKm_-65" value="" style="aspect=fixed;perimeter=ellipsePerimeter;html=1;align=center;shadow=0;dashed=0;spacingTop=3;image;image=img/lib/active_directory/laptop_client.svg;" parent="1" vertex="1">
                    <mxGeometry x="387" y="826" width="59.4" height="66" as="geometry"/>
                </mxCell>
                <mxCell id="Z6yaOMebvy-DG6b0BKm_-66" value="" style="sketch=0;outlineConnect=0;fontColor=#232F3E;gradientColor=none;fillColor=#232F3D;strokeColor=none;dashed=0;verticalLabelPosition=bottom;verticalAlign=top;align=center;html=1;fontSize=12;fontStyle=0;aspect=fixed;pointerEvents=1;shape=mxgraph.aws4.mobile_client;" parent="1" vertex="1">
                    <mxGeometry x="470" y="877" width="41" height="78" as="geometry"/>
                </mxCell>
                <mxCell id="Z6yaOMebvy-DG6b0BKm_-67" value="" style="shape=image;verticalLabelPosition=bottom;labelBackgroundColor=#ffffff;verticalAlign=top;aspect=fixed;imageAspect=0;image=data:image/svg+xml,PHN2ZyB4bWxuczpjYz0iaHR0cDovL2NyZWF0aXZlY29tbW9ucy5vcmcvbnMjIiB4bWxuczpkYz0iaHR0cDovL3B1cmwub3JnL2RjL2VsZW1lbnRzLzEuMS8iIHhtbG5zOmlua3NjYXBlPSJodHRwOi8vd3d3Lmlua3NjYXBlLm9yZy9uYW1lc3BhY2VzL2lua3NjYXBlIiB4bWxuczpyZGY9Imh0dHA6Ly93d3cudzMub3JnLzE5OTkvMDIvMjItcmRmLXN5bnRheC1ucyMiIHhtbG5zOnNvZGlwb2RpPSJodHRwOi8vc29kaXBvZGkuc291cmNlZm9yZ2UubmV0L0RURC9zb2RpcG9kaS0wLmR0ZCIgeG1sbnM6c3ZnPSJodHRwOi8vd3d3LnczLm9yZy8yMDAwL3N2ZyIgeG1sbnM9Imh0dHA6Ly93d3cudzMub3JnLzIwMDAvc3ZnIiB4bWxuczp4bGluaz0iaHR0cDovL3d3dy53My5vcmcvMTk5OS94bGluayIgdmVyc2lvbj0iMS4xIiBpZD0ic3ZnMTE4NTI2IiBpbmtzY2FwZTp2ZXJzaW9uPSIwLjkyLjMgKDI0MDU1NDYsIDIwMTgtMDMtMTEpIiBzb2RpcG9kaTpkb2NuYW1lPSJhenVyZV9jbGlfMS5zdmciIHg9IjBweCIgeT0iMHB4IiB2aWV3Qm94PSIwIDAgNTYuOTEgNDYuMDUiIHN0eWxlPSJlbmFibGUtYmFja2dyb3VuZDpuZXcgMCAwIDU2LjkxIDQ2LjA1OyIgeG1sOnNwYWNlPSJwcmVzZXJ2ZSI+JiN4YTs8c29kaXBvZGk6bmFtZWR2aWV3IGJvcmRlcmNvbG9yPSIjNjY2NjY2IiBib3JkZXJvcGFjaXR5PSIxIiBmaXQtbWFyZ2luLWJvdHRvbT0iMCIgZml0LW1hcmdpbi1sZWZ0PSIwIiBmaXQtbWFyZ2luLXJpZ2h0PSIwIiBmaXQtbWFyZ2luLXRvcD0iMCIgZ3JpZHRvbGVyYW5jZT0iMTAiIGd1aWRldG9sZXJhbmNlPSIxMCIgaWQ9Im5hbWVkdmlldzExODUyOCIgaW5rc2NhcGU6Y3VycmVudC1sYXllcj0ic3ZnMTE4NTI2IiBpbmtzY2FwZTpjeD0iMzcuOTM5MjQzIiBpbmtzY2FwZTpjeT0iMzAuNzAwODA0IiBpbmtzY2FwZTpwYWdlb3BhY2l0eT0iMCIgaW5rc2NhcGU6cGFnZXNoYWRvdz0iMiIgaW5rc2NhcGU6d2luZG93LWhlaWdodD0iMTAxNyIgaW5rc2NhcGU6d2luZG93LW1heGltaXplZD0iMSIgaW5rc2NhcGU6d2luZG93LXdpZHRoPSIxOTIwIiBpbmtzY2FwZTp3aW5kb3cteD0iLTgiIGlua3NjYXBlOndpbmRvdy15PSItOCIgaW5rc2NhcGU6em9vbT0iMTAuNTk4Nzc3IiBvYmplY3R0b2xlcmFuY2U9IjEwIiBwYWdlY29sb3I9IiNmZmZmZmYiIHNob3dncmlkPSJmYWxzZSI+JiN4YTsJPC9zb2RpcG9kaTpuYW1lZHZpZXc+JiN4YTs8ZyBpZD0iZzExODUyNCIgdHJhbnNmb3JtPSJ0cmFuc2xhdGUoLTcuNjUsLTcuNjUwMTM2NSkiPiYjeGE7CTx0aXRsZSBpZD0idGl0bGUxMTg0OTEiPlBhZ2UtMTwvdGl0bGU+JiN4YTsJPGcgaWQ9Imdyb3VwMTMzNS0xIiB0cmFuc2Zvcm09InRyYW5zbGF0ZSg3LjY1LC03LjY1KSI+JiN4YTsJCTx0aXRsZSBpZD0idGl0bGUxMTg0OTMiPkF6dXJlIENMSSAjMTwvdGl0bGU+JiN4YTsJCTxnIGlkPSJzaGFwZTEzMzYtMiI+JiN4YTsJCQk8dGl0bGUgaWQ9InRpdGxlMTE4NDk1Ij5TaGVldC4xMzM2PC90aXRsZT4mI3hhOwkJCTxyZWN0IGlkPSJyZWN0MTE4NDk3IiB5PSIxNS4zIiBzdHlsZT0iZmlsbDojN0E3QTdBOyIgd2lkdGg9IjU2LjkxIiBoZWlnaHQ9IjQ2LjA1Ii8+JiN4YTsJCTwvZz4mI3hhOwkJPGcgaWQ9InNoYXBlMTMzNy00IiB0cmFuc2Zvcm09InRyYW5zbGF0ZSgyLjk5NTIyLC0yLjYyMDgxKSI+JiN4YTsJCQk8dGl0bGUgaWQ9InRpdGxlMTE4NTAwIj5TaGVldC4xMzM3PC90aXRsZT4mI3hhOwkJCTxyZWN0IGlkPSJyZWN0MTE4NTAyIiB4PSIwIiB5PSIyNi45MSIgc3R5bGU9ImZpbGw6IzIzMUYyMDsiIHdpZHRoPSI1MC45MiIgaGVpZ2h0PSIzNC40NCIvPiYjeGE7CQk8L2c+JiN4YTsJCTxnIGlkPSJncm91cDEzMzgtNiIgdHJhbnNmb3JtPSJ0cmFuc2xhdGUoOC4xMjk3NiwtOC40NDgwMSkiPiYjeGE7CQkJPHRpdGxlIGlkPSJ0aXRsZTExODUwNSI+U2hlZXQuMTMzODwvdGl0bGU+JiN4YTsJCQk8ZyBpZD0ic2hhcGUxMzM5LTciPiYjeGE7CQkJCTx0aXRsZSBpZD0idGl0bGUxMTg1MDciPlNoZWV0LjEzMzk8L3RpdGxlPiYjeGE7CQkJCTxwYXRoIGlkPSJwYXRoMTE4NTA5IiBpbmtzY2FwZTpjb25uZWN0b3ItY3VydmF0dXJlPSIwIiBzdHlsZT0iZmlsbDojRkZGRkZGOyIgZD0iTTAsNTFsMS4xMS0xLjE0bDYuODgsNS43NWwtNi44OCw1Ljc0TDAsNjAuMjMgICAgICBsNS41OC00LjZMMCw1MXoiLz4mI3hhOwkJCTwvZz4mI3hhOwkJCTxnIGlkPSJzaGFwZTEzNDAtOSIgdHJhbnNmb3JtPSJ0cmFuc2xhdGUoMTEuNTI3OCkiPiYjeGE7CQkJCTx0aXRsZSBpZD0idGl0bGUxMTg1MTIiPlNoZWV0LjEzNDA8L3RpdGxlPiYjeGE7CQkJCTxwYXRoIGlkPSJwYXRoMTE4NTE0IiBpbmtzY2FwZTpjb25uZWN0b3ItY3VydmF0dXJlPSIwIiBzdHlsZT0iZmlsbDojRkZGRkZGOyIgZD0iTTAsNTFsMS4xMS0xLjE0bDYuODgsNS43NWwtNi44OCw1Ljc0TDAsNjAuMjMgICAgICBsNS41OC00LjZMMCw1MXoiLz4mI3hhOwkJCTwvZz4mI3hhOwkJCTxnIGlkPSJzaGFwZTEzNDEtMTEiIHRyYW5zZm9ybT0idHJhbnNsYXRlKDIzLjA1NDkpIj4mI3hhOwkJCQk8dGl0bGUgaWQ9InRpdGxlMTE4NTE3Ij5TaGVldC4xMzQxPC90aXRsZT4mI3hhOwkJCQk8cGF0aCBpZD0icGF0aDExODUxOSIgaW5rc2NhcGU6Y29ubmVjdG9yLWN1cnZhdHVyZT0iMCIgc3R5bGU9ImZpbGw6I0ZGRkZGRjsiIGQ9Ik0wLDUxbDEuMTEtMS4xNGw2Ljg4LDUuNzVsLTYuODgsNS43NEwwLDYwLjIzICAgICAgbDUuNTgtNC42TDAsNTF6Ii8+JiN4YTsJCQk8L2c+JiN4YTsJCTwvZz4mI3hhOwk8L2c+JiN4YTs8L2c+JiN4YTs8L3N2Zz4=;" parent="1" vertex="1">
                    <mxGeometry x="372" y="915" width="57" height="46" as="geometry"/>
                </mxCell>
                <mxCell id="Z6yaOMebvy-DG6b0BKm_-68" value="" style="shape=mxgraph.mockup.containers.marginRect;rectMarginTop=10;strokeColor=#666666;strokeWidth=1;dashed=0;rounded=1;arcSize=5;recursiveResize=0;" parent="1" vertex="1">
                    <mxGeometry x="742" y="510" width="210" height="203" as="geometry"/>
                </mxCell>
                <mxCell id="Z6yaOMebvy-DG6b0BKm_-69" value="Authorization Servers" style="shape=rect;strokeColor=none;fillColor=#008cff;strokeWidth=1;dashed=0;rounded=1;arcSize=20;fontColor=#ffffff;fontSize=17;spacing=2;spacingTop=-2;align=left;autosize=1;spacingLeft=4;resizeWidth=0;resizeHeight=0;perimeter=none;" parent="Z6yaOMebvy-DG6b0BKm_-68" vertex="1">
                    <mxGeometry x="5" y="1" width="183" height="28" as="geometry"/>
                </mxCell>
                <mxCell id="Z6yaOMebvy-DG6b0BKm_-70" value="" style="aspect=fixed;perimeter=ellipsePerimeter;html=1;align=center;shadow=0;dashed=0;spacingTop=3;image;image=img/lib/active_directory/web_server.svg;" parent="Z6yaOMebvy-DG6b0BKm_-68" vertex="1">
                    <mxGeometry x="82" y="73" width="58.4" height="73" as="geometry"/>
                </mxCell>
                <mxCell id="Z6yaOMebvy-DG6b0BKm_-71" value="&lt;b&gt;Auth&lt;/b&gt;" style="text;html=1;strokeColor=none;fillColor=none;align=center;verticalAlign=middle;whiteSpace=wrap;rounded=0;" parent="Z6yaOMebvy-DG6b0BKm_-68" vertex="1">
                    <mxGeometry x="77" y="143" width="60" height="30" as="geometry"/>
                </mxCell>
                <mxCell id="Z6yaOMebvy-DG6b0BKm_-72" value="" style="endArrow=classic;html=1;rounded=0;exitX=1.014;exitY=0.43;exitDx=0;exitDy=0;exitPerimeter=0;entryX=0.002;entryY=0.487;entryDx=0;entryDy=0;entryPerimeter=0;" parent="1" source="Z6yaOMebvy-DG6b0BKm_-63" target="Z6yaOMebvy-DG6b0BKm_-75" edge="1">
                    <mxGeometry relative="1" as="geometry">
                        <mxPoint x="595" y="866" as="sourcePoint"/>
                        <mxPoint x="695" y="866" as="targetPoint"/>
                    </mxGeometry>
                </mxCell>
                <mxCell id="Z6yaOMebvy-DG6b0BKm_-73" value="Token" style="edgeLabel;resizable=0;html=1;align=center;verticalAlign=middle;" parent="Z6yaOMebvy-DG6b0BKm_-72" connectable="0" vertex="1">
                    <mxGeometry relative="1" as="geometry"/>
                </mxCell>
                <mxCell id="Z6yaOMebvy-DG6b0BKm_-75" value="" style="shape=mxgraph.mockup.containers.marginRect;rectMarginTop=10;strokeColor=#666666;strokeWidth=1;dashed=0;rounded=1;arcSize=5;recursiveResize=0;" parent="1" vertex="1">
                    <mxGeometry x="742" y="782" width="210" height="203" as="geometry"/>
                </mxCell>
                <mxCell id="Z6yaOMebvy-DG6b0BKm_-76" value="Services" style="shape=rect;strokeColor=none;fillColor=#008cff;strokeWidth=1;dashed=0;rounded=1;arcSize=20;fontColor=#ffffff;fontSize=17;spacing=2;spacingTop=-2;align=left;autosize=1;spacingLeft=4;resizeWidth=0;resizeHeight=0;perimeter=none;" parent="Z6yaOMebvy-DG6b0BKm_-75" vertex="1">
                    <mxGeometry x="5" y="1" width="85" height="28" as="geometry"/>
                </mxCell>
                <mxCell id="Z6yaOMebvy-DG6b0BKm_-77" value="" style="aspect=fixed;perimeter=ellipsePerimeter;html=1;align=center;shadow=0;dashed=0;spacingTop=3;image;image=img/lib/active_directory/web_server.svg;" parent="Z6yaOMebvy-DG6b0BKm_-75" vertex="1">
                    <mxGeometry x="82" y="73" width="58.4" height="73" as="geometry"/>
                </mxCell>
                <mxCell id="Z6yaOMebvy-DG6b0BKm_-78" value="&lt;b&gt;API&lt;/b&gt;" style="text;html=1;strokeColor=none;fillColor=none;align=center;verticalAlign=middle;whiteSpace=wrap;rounded=0;" parent="Z6yaOMebvy-DG6b0BKm_-75" vertex="1">
                    <mxGeometry x="77" y="143" width="60" height="30" as="geometry"/>
                </mxCell>
                <mxCell id="Z6yaOMebvy-DG6b0BKm_-80" value="&lt;font color=&quot;#000000&quot;&gt;Recupera chave pública&lt;br&gt;https://&amp;lt;auth-server&amp;gt;/jwks&lt;br&gt;&lt;/font&gt;" style="text;html=1;strokeColor=none;fillColor=none;align=center;verticalAlign=middle;whiteSpace=wrap;rounded=0;fontSize=14;fontColor=#FF0000;" parent="1" vertex="1">
                    <mxGeometry x="851" y="739" width="182" height="30" as="geometry"/>
                </mxCell>
                <mxCell id="Z6yaOMebvy-DG6b0BKm_-81" value="" style="rounded=1;whiteSpace=wrap;html=1;movable=0;resizable=0;rotatable=0;deletable=0;editable=0;locked=1;connectable=0;" parent="1" vertex="1">
                    <mxGeometry x="1164" y="499" width="939" height="570" as="geometry"/>
                </mxCell>
                <mxCell id="Z6yaOMebvy-DG6b0BKm_-82" value="&lt;h1&gt;4 - Obtendo o Recurso&lt;/h1&gt;&lt;p&gt;&lt;font style=&quot;font-size: 14px;&quot;&gt;Se o token for &lt;b&gt;&lt;font color=&quot;#00cc00&quot;&gt;válido&lt;/font&gt;&lt;/b&gt;, o cliente recebe o recurso solicitado ao serviço&lt;br&gt;Se o token for &lt;b&gt;&lt;font color=&quot;#ff0000&quot;&gt;inválido&lt;/font&gt;&lt;/b&gt;, o acesso é negado e o cliente deve se logar novamente&lt;/font&gt;&lt;/p&gt;" style="text;html=1;strokeColor=none;fillColor=none;spacing=5;spacingTop=-20;whiteSpace=wrap;overflow=hidden;rounded=0;" parent="1" vertex="1">
                    <mxGeometry x="1205" y="574" width="529" height="97" as="geometry"/>
                </mxCell>
                <mxCell id="Z6yaOMebvy-DG6b0BKm_-83" value="" style="shape=mxgraph.mockup.containers.marginRect;rectMarginTop=10;strokeColor=#666666;strokeWidth=1;dashed=0;rounded=1;arcSize=5;recursiveResize=0;" parent="1" vertex="1">
                    <mxGeometry x="1347" y="772" width="212" height="245" as="geometry"/>
                </mxCell>
                <mxCell id="Z6yaOMebvy-DG6b0BKm_-84" value="Clients" style="shape=rect;strokeColor=none;fillColor=#008cff;strokeWidth=1;dashed=0;rounded=1;arcSize=20;fontColor=#ffffff;fontSize=17;spacing=2;spacingTop=-2;align=left;autosize=1;spacingLeft=4;resizeWidth=0;resizeHeight=0;perimeter=none;" parent="Z6yaOMebvy-DG6b0BKm_-83" vertex="1">
                    <mxGeometry x="5" y="1" width="72" height="28" as="geometry"/>
                </mxCell>
                <mxCell id="Z6yaOMebvy-DG6b0BKm_-85" value="" style="aspect=fixed;perimeter=ellipsePerimeter;html=1;align=center;shadow=0;dashed=0;spacingTop=3;image;image=img/lib/active_directory/laptop_client.svg;" parent="1" vertex="1">
                    <mxGeometry x="1400" y="844" width="59.4" height="66" as="geometry"/>
                </mxCell>
                <mxCell id="Z6yaOMebvy-DG6b0BKm_-86" value="" style="sketch=0;outlineConnect=0;fontColor=#232F3E;gradientColor=none;fillColor=#232F3D;strokeColor=none;dashed=0;verticalLabelPosition=bottom;verticalAlign=top;align=center;html=1;fontSize=12;fontStyle=0;aspect=fixed;pointerEvents=1;shape=mxgraph.aws4.mobile_client;" parent="1" vertex="1">
                    <mxGeometry x="1483" y="895" width="41" height="78" as="geometry"/>
                </mxCell>
                <mxCell id="Z6yaOMebvy-DG6b0BKm_-87" value="" style="shape=image;verticalLabelPosition=bottom;labelBackgroundColor=#ffffff;verticalAlign=top;aspect=fixed;imageAspect=0;image=data:image/svg+xml,PHN2ZyB4bWxuczpjYz0iaHR0cDovL2NyZWF0aXZlY29tbW9ucy5vcmcvbnMjIiB4bWxuczpkYz0iaHR0cDovL3B1cmwub3JnL2RjL2VsZW1lbnRzLzEuMS8iIHhtbG5zOmlua3NjYXBlPSJodHRwOi8vd3d3Lmlua3NjYXBlLm9yZy9uYW1lc3BhY2VzL2lua3NjYXBlIiB4bWxuczpyZGY9Imh0dHA6Ly93d3cudzMub3JnLzE5OTkvMDIvMjItcmRmLXN5bnRheC1ucyMiIHhtbG5zOnNvZGlwb2RpPSJodHRwOi8vc29kaXBvZGkuc291cmNlZm9yZ2UubmV0L0RURC9zb2RpcG9kaS0wLmR0ZCIgeG1sbnM6c3ZnPSJodHRwOi8vd3d3LnczLm9yZy8yMDAwL3N2ZyIgeG1sbnM9Imh0dHA6Ly93d3cudzMub3JnLzIwMDAvc3ZnIiB4bWxuczp4bGluaz0iaHR0cDovL3d3dy53My5vcmcvMTk5OS94bGluayIgdmVyc2lvbj0iMS4xIiBpZD0ic3ZnMTE4NTI2IiBpbmtzY2FwZTp2ZXJzaW9uPSIwLjkyLjMgKDI0MDU1NDYsIDIwMTgtMDMtMTEpIiBzb2RpcG9kaTpkb2NuYW1lPSJhenVyZV9jbGlfMS5zdmciIHg9IjBweCIgeT0iMHB4IiB2aWV3Qm94PSIwIDAgNTYuOTEgNDYuMDUiIHN0eWxlPSJlbmFibGUtYmFja2dyb3VuZDpuZXcgMCAwIDU2LjkxIDQ2LjA1OyIgeG1sOnNwYWNlPSJwcmVzZXJ2ZSI+JiN4YTs8c29kaXBvZGk6bmFtZWR2aWV3IGJvcmRlcmNvbG9yPSIjNjY2NjY2IiBib3JkZXJvcGFjaXR5PSIxIiBmaXQtbWFyZ2luLWJvdHRvbT0iMCIgZml0LW1hcmdpbi1sZWZ0PSIwIiBmaXQtbWFyZ2luLXJpZ2h0PSIwIiBmaXQtbWFyZ2luLXRvcD0iMCIgZ3JpZHRvbGVyYW5jZT0iMTAiIGd1aWRldG9sZXJhbmNlPSIxMCIgaWQ9Im5hbWVkdmlldzExODUyOCIgaW5rc2NhcGU6Y3VycmVudC1sYXllcj0ic3ZnMTE4NTI2IiBpbmtzY2FwZTpjeD0iMzcuOTM5MjQzIiBpbmtzY2FwZTpjeT0iMzAuNzAwODA0IiBpbmtzY2FwZTpwYWdlb3BhY2l0eT0iMCIgaW5rc2NhcGU6cGFnZXNoYWRvdz0iMiIgaW5rc2NhcGU6d2luZG93LWhlaWdodD0iMTAxNyIgaW5rc2NhcGU6d2luZG93LW1heGltaXplZD0iMSIgaW5rc2NhcGU6d2luZG93LXdpZHRoPSIxOTIwIiBpbmtzY2FwZTp3aW5kb3cteD0iLTgiIGlua3NjYXBlOndpbmRvdy15PSItOCIgaW5rc2NhcGU6em9vbT0iMTAuNTk4Nzc3IiBvYmplY3R0b2xlcmFuY2U9IjEwIiBwYWdlY29sb3I9IiNmZmZmZmYiIHNob3dncmlkPSJmYWxzZSI+JiN4YTsJPC9zb2RpcG9kaTpuYW1lZHZpZXc+JiN4YTs8ZyBpZD0iZzExODUyNCIgdHJhbnNmb3JtPSJ0cmFuc2xhdGUoLTcuNjUsLTcuNjUwMTM2NSkiPiYjeGE7CTx0aXRsZSBpZD0idGl0bGUxMTg0OTEiPlBhZ2UtMTwvdGl0bGU+JiN4YTsJPGcgaWQ9Imdyb3VwMTMzNS0xIiB0cmFuc2Zvcm09InRyYW5zbGF0ZSg3LjY1LC03LjY1KSI+JiN4YTsJCTx0aXRsZSBpZD0idGl0bGUxMTg0OTMiPkF6dXJlIENMSSAjMTwvdGl0bGU+JiN4YTsJCTxnIGlkPSJzaGFwZTEzMzYtMiI+JiN4YTsJCQk8dGl0bGUgaWQ9InRpdGxlMTE4NDk1Ij5TaGVldC4xMzM2PC90aXRsZT4mI3hhOwkJCTxyZWN0IGlkPSJyZWN0MTE4NDk3IiB5PSIxNS4zIiBzdHlsZT0iZmlsbDojN0E3QTdBOyIgd2lkdGg9IjU2LjkxIiBoZWlnaHQ9IjQ2LjA1Ii8+JiN4YTsJCTwvZz4mI3hhOwkJPGcgaWQ9InNoYXBlMTMzNy00IiB0cmFuc2Zvcm09InRyYW5zbGF0ZSgyLjk5NTIyLC0yLjYyMDgxKSI+JiN4YTsJCQk8dGl0bGUgaWQ9InRpdGxlMTE4NTAwIj5TaGVldC4xMzM3PC90aXRsZT4mI3hhOwkJCTxyZWN0IGlkPSJyZWN0MTE4NTAyIiB4PSIwIiB5PSIyNi45MSIgc3R5bGU9ImZpbGw6IzIzMUYyMDsiIHdpZHRoPSI1MC45MiIgaGVpZ2h0PSIzNC40NCIvPiYjeGE7CQk8L2c+JiN4YTsJCTxnIGlkPSJncm91cDEzMzgtNiIgdHJhbnNmb3JtPSJ0cmFuc2xhdGUoOC4xMjk3NiwtOC40NDgwMSkiPiYjeGE7CQkJPHRpdGxlIGlkPSJ0aXRsZTExODUwNSI+U2hlZXQuMTMzODwvdGl0bGU+JiN4YTsJCQk8ZyBpZD0ic2hhcGUxMzM5LTciPiYjeGE7CQkJCTx0aXRsZSBpZD0idGl0bGUxMTg1MDciPlNoZWV0LjEzMzk8L3RpdGxlPiYjeGE7CQkJCTxwYXRoIGlkPSJwYXRoMTE4NTA5IiBpbmtzY2FwZTpjb25uZWN0b3ItY3VydmF0dXJlPSIwIiBzdHlsZT0iZmlsbDojRkZGRkZGOyIgZD0iTTAsNTFsMS4xMS0xLjE0bDYuODgsNS43NWwtNi44OCw1Ljc0TDAsNjAuMjMgICAgICBsNS41OC00LjZMMCw1MXoiLz4mI3hhOwkJCTwvZz4mI3hhOwkJCTxnIGlkPSJzaGFwZTEzNDAtOSIgdHJhbnNmb3JtPSJ0cmFuc2xhdGUoMTEuNTI3OCkiPiYjeGE7CQkJCTx0aXRsZSBpZD0idGl0bGUxMTg1MTIiPlNoZWV0LjEzNDA8L3RpdGxlPiYjeGE7CQkJCTxwYXRoIGlkPSJwYXRoMTE4NTE0IiBpbmtzY2FwZTpjb25uZWN0b3ItY3VydmF0dXJlPSIwIiBzdHlsZT0iZmlsbDojRkZGRkZGOyIgZD0iTTAsNTFsMS4xMS0xLjE0bDYuODgsNS43NWwtNi44OCw1Ljc0TDAsNjAuMjMgICAgICBsNS41OC00LjZMMCw1MXoiLz4mI3hhOwkJCTwvZz4mI3hhOwkJCTxnIGlkPSJzaGFwZTEzNDEtMTEiIHRyYW5zZm9ybT0idHJhbnNsYXRlKDIzLjA1NDkpIj4mI3hhOwkJCQk8dGl0bGUgaWQ9InRpdGxlMTE4NTE3Ij5TaGVldC4xMzQxPC90aXRsZT4mI3hhOwkJCQk8cGF0aCBpZD0icGF0aDExODUxOSIgaW5rc2NhcGU6Y29ubmVjdG9yLWN1cnZhdHVyZT0iMCIgc3R5bGU9ImZpbGw6I0ZGRkZGRjsiIGQ9Ik0wLDUxbDEuMTEtMS4xNGw2Ljg4LDUuNzVsLTYuODgsNS43NEwwLDYwLjIzICAgICAgbDUuNTgtNC42TDAsNTF6Ii8+JiN4YTsJCQk8L2c+JiN4YTsJCTwvZz4mI3hhOwk8L2c+JiN4YTs8L2c+JiN4YTs8L3N2Zz4=;" parent="1" vertex="1">
                    <mxGeometry x="1385" y="933" width="57" height="46" as="geometry"/>
                </mxCell>
                <mxCell id="Z6yaOMebvy-DG6b0BKm_-88" value="" style="shape=mxgraph.mockup.containers.marginRect;rectMarginTop=10;strokeColor=#666666;strokeWidth=1;dashed=0;rounded=1;arcSize=5;recursiveResize=0;" parent="1" vertex="1">
                    <mxGeometry x="1755" y="528" width="210" height="203" as="geometry"/>
                </mxCell>
                <mxCell id="Z6yaOMebvy-DG6b0BKm_-89" value="Authorization Servers" style="shape=rect;strokeColor=none;fillColor=#008cff;strokeWidth=1;dashed=0;rounded=1;arcSize=20;fontColor=#ffffff;fontSize=17;spacing=2;spacingTop=-2;align=left;autosize=1;spacingLeft=4;resizeWidth=0;resizeHeight=0;perimeter=none;" parent="Z6yaOMebvy-DG6b0BKm_-88" vertex="1">
                    <mxGeometry x="5" y="1" width="183" height="28" as="geometry"/>
                </mxCell>
                <mxCell id="Z6yaOMebvy-DG6b0BKm_-90" value="" style="aspect=fixed;perimeter=ellipsePerimeter;html=1;align=center;shadow=0;dashed=0;spacingTop=3;image;image=img/lib/active_directory/web_server.svg;" parent="Z6yaOMebvy-DG6b0BKm_-88" vertex="1">
                    <mxGeometry x="82" y="73" width="58.4" height="73" as="geometry"/>
                </mxCell>
                <mxCell id="Z6yaOMebvy-DG6b0BKm_-91" value="&lt;b&gt;Auth&lt;/b&gt;" style="text;html=1;strokeColor=none;fillColor=none;align=center;verticalAlign=middle;whiteSpace=wrap;rounded=0;" parent="Z6yaOMebvy-DG6b0BKm_-88" vertex="1">
                    <mxGeometry x="77" y="143" width="60" height="30" as="geometry"/>
                </mxCell>
                <mxCell id="Z6yaOMebvy-DG6b0BKm_-94" value="" style="shape=mxgraph.mockup.containers.marginRect;rectMarginTop=10;strokeColor=#666666;strokeWidth=1;dashed=0;rounded=1;arcSize=5;recursiveResize=0;" parent="1" vertex="1">
                    <mxGeometry x="1755" y="800" width="210" height="203" as="geometry"/>
                </mxCell>
                <mxCell id="Z6yaOMebvy-DG6b0BKm_-95" value="Services" style="shape=rect;strokeColor=none;fillColor=#008cff;strokeWidth=1;dashed=0;rounded=1;arcSize=20;fontColor=#ffffff;fontSize=17;spacing=2;spacingTop=-2;align=left;autosize=1;spacingLeft=4;resizeWidth=0;resizeHeight=0;perimeter=none;" parent="Z6yaOMebvy-DG6b0BKm_-94" vertex="1">
                    <mxGeometry x="5" y="1" width="85" height="28" as="geometry"/>
                </mxCell>
                <mxCell id="Z6yaOMebvy-DG6b0BKm_-96" value="" style="aspect=fixed;perimeter=ellipsePerimeter;html=1;align=center;shadow=0;dashed=0;spacingTop=3;image;image=img/lib/active_directory/web_server.svg;" parent="Z6yaOMebvy-DG6b0BKm_-94" vertex="1">
                    <mxGeometry x="82" y="73" width="58.4" height="73" as="geometry"/>
                </mxCell>
                <mxCell id="Z6yaOMebvy-DG6b0BKm_-97" value="&lt;b&gt;API&lt;/b&gt;" style="text;html=1;strokeColor=none;fillColor=none;align=center;verticalAlign=middle;whiteSpace=wrap;rounded=0;" parent="Z6yaOMebvy-DG6b0BKm_-94" vertex="1">
                    <mxGeometry x="77" y="143" width="60" height="30" as="geometry"/>
                </mxCell>
                <mxCell id="Z6yaOMebvy-DG6b0BKm_-107" value="Token Válido" style="text;html=1;strokeColor=none;fillColor=none;align=center;verticalAlign=middle;whiteSpace=wrap;rounded=0;fontSize=14;fontColor=#000000;" parent="Z6yaOMebvy-DG6b0BKm_-94" vertex="1">
                    <mxGeometry x="-2" y="36" width="204" height="30" as="geometry"/>
                </mxCell>
                <mxCell id="Z6yaOMebvy-DG6b0BKm_-108" value="" style="sketch=0;html=1;aspect=fixed;strokeColor=none;shadow=0;align=center;verticalAlign=top;fillColor=#2D9C5E;shape=mxgraph.gcp2.check;fontSize=14;fontColor=#000000;" parent="Z6yaOMebvy-DG6b0BKm_-94" vertex="1">
                    <mxGeometry x="144" y="29" width="42.5" height="34" as="geometry"/>
                </mxCell>
                <mxCell id="Z6yaOMebvy-DG6b0BKm_-100" value="" style="endArrow=classic;html=1;rounded=0;fontSize=14;fontColor=#000000;entryX=0.999;entryY=0.546;entryDx=0;entryDy=0;entryPerimeter=0;exitX=-0.004;exitY=0.527;exitDx=0;exitDy=0;exitPerimeter=0;" parent="1" source="Z6yaOMebvy-DG6b0BKm_-94" target="Z6yaOMebvy-DG6b0BKm_-83" edge="1">
                    <mxGeometry relative="1" as="geometry">
                        <mxPoint x="1639" y="752" as="sourcePoint"/>
                        <mxPoint x="1739" y="752" as="targetPoint"/>
                    </mxGeometry>
                </mxCell>
                <mxCell id="Z6yaOMebvy-DG6b0BKm_-101" value="Recurso" style="edgeLabel;resizable=0;html=1;align=center;verticalAlign=middle;fontSize=14;fontColor=#000000;" parent="Z6yaOMebvy-DG6b0BKm_-100" connectable="0" vertex="1">
                    <mxGeometry relative="1" as="geometry"/>
                </mxCell>
                <mxCell id="Z6yaOMebvy-DG6b0BKm_-106" value="" style="endArrow=classic;startArrow=classic;html=1;rounded=0;fontSize=14;fontColor=#000000;entryX=0.505;entryY=1.015;entryDx=0;entryDy=0;entryPerimeter=0;exitX=0.505;exitY=0.042;exitDx=0;exitDy=0;exitPerimeter=0;" parent="1" source="Z6yaOMebvy-DG6b0BKm_-75" target="Z6yaOMebvy-DG6b0BKm_-68" edge="1">
                    <mxGeometry width="50" height="50" relative="1" as="geometry">
                        <mxPoint x="1022" y="753" as="sourcePoint"/>
                        <mxPoint x="1072" y="703" as="targetPoint"/>
                    </mxGeometry>
                </mxCell>
            </root>
        </mxGraphModel>
    </diagram>
</mxfile>